<?xml version="1.0" encoding="UTF-8" standalone="no"?>
<!DOCTYPE svg PUBLIC "-//W3C//DTD SVG 1.1//EN"
 "http://www.w3.org/Graphics/SVG/1.1/DTD/svg11.dtd">
<!-- Generated by graphviz version 2.38.0 (20140413.2041)
 -->
<!-- Title: controllers_diagram Pages: 1 -->
<svg width="564pt" height="599pt"
 viewBox="0.00 0.00 563.92 599.00" xmlns="http://www.w3.org/2000/svg" xmlns:xlink="http://www.w3.org/1999/xlink">
<g id="graph0" class="graph" transform="scale(1 1) rotate(0) translate(180.104 355.5)">
<title>controllers_diagram</title>
<polygon fill="none" stroke="none" points="-180.104,243.5 -180.104,-355.5 383.821,-355.5 383.821,243.5 -180.104,243.5"/>
<!-- _diagram_info -->
<g id="node1" class="node"><title>_diagram_info</title>
<text text-anchor="start" x="8.31226" y="148.9" font-family="Times,serif" font-size="13.00">Controllers diagram</text>
<text text-anchor="start" x="8.31226" y="161.9" font-family="Times,serif" font-size="13.00">Date: Sep 30 2016 &#45; 09:46</text>
<text text-anchor="start" x="8.31226" y="174.9" font-family="Times,serif" font-size="13.00">Migration version: 20160926173352</text>
<text text-anchor="start" x="8.31226" y="187.9" font-family="Times,serif" font-size="13.00">Generated by RailRoady 1.5.2</text>
<text text-anchor="start" x="8.31226" y="200.9" font-family="Times,serif" font-size="13.00">http://railroady.prestonlee.com</text>
</g>
<!-- AdminSessionsController -->
<g id="node2" class="node"><title>AdminSessionsController</title>
<path fill="none" stroke="black" d="M107.666,95C107.666,95 244.334,95 244.334,95 250.334,95 256.334,89 256.334,83 256.334,83 256.334,-11 256.334,-11 256.334,-17 250.334,-23 244.334,-23 244.334,-23 107.666,-23 107.666,-23 101.666,-23 95.6655,-17 95.6655,-11 95.6655,-11 95.6655,83 95.6655,83 95.6655,89 101.666,95 107.666,95"/>
<text text-anchor="middle" x="176" y="-7.8" font-family="Times,serif" font-size="14.00">AdminSessionsController</text>
<polyline fill="none" stroke="black" points="95.6655,-1 256.334,-1 "/>
<text text-anchor="start" x="103.666" y="14.2" font-family="Times,serif" font-size="14.00">create</text>
<text text-anchor="start" x="103.666" y="28.2" font-family="Times,serif" font-size="14.00">destroy</text>
<text text-anchor="start" x="103.666" y="42.2" font-family="Times,serif" font-size="14.00">new</text>
<polyline fill="none" stroke="black" points="95.6655,49 256.334,49 "/>
<polyline fill="none" stroke="black" points="95.6655,73 256.334,73 "/>
<text text-anchor="start" x="103.666" y="88.2" font-family="Times,serif" font-size="14.00">_layout</text>
</g>
<!-- ApplicationController -->
<g id="node3" class="node"><title>ApplicationController</title>
<path fill="none" stroke="black" d="M252.179,239C252.179,239 367.821,239 367.821,239 373.821,239 379.821,233 379.821,227 379.821,227 379.821,147 379.821,147 379.821,141 373.821,135 367.821,135 367.821,135 252.179,135 252.179,135 246.179,135 240.179,141 240.179,147 240.179,147 240.179,227 240.179,227 240.179,233 246.179,239 252.179,239"/>
<text text-anchor="middle" x="310" y="150.2" font-family="Times,serif" font-size="14.00">ApplicationController</text>
<polyline fill="none" stroke="black" points="240.179,157 379.821,157 "/>
<text text-anchor="start" x="248.179" y="172.2" font-family="Times,serif" font-size="14.00">current_admin</text>
<text text-anchor="start" x="248.179" y="186.2" font-family="Times,serif" font-size="14.00">require_admin</text>
<polyline fill="none" stroke="black" points="240.179,193 379.821,193 "/>
<polyline fill="none" stroke="black" points="240.179,217 379.821,217 "/>
<text text-anchor="start" x="248.179" y="232.2" font-family="Times,serif" font-size="14.00">_layout</text>
</g>
<!-- ContactsController -->
<g id="node4" class="node"><title>ContactsController</title>
<path fill="none" stroke="black" d="M251.731,-49C251.731,-49 350.269,-49 350.269,-49 356.269,-49 362.269,-55 362.269,-61 362.269,-61 362.269,-155 362.269,-155 362.269,-161 356.269,-167 350.269,-167 350.269,-167 251.731,-167 251.731,-167 245.731,-167 239.731,-161 239.731,-155 239.731,-155 239.731,-61 239.731,-61 239.731,-55 245.731,-49 251.731,-49"/>
<text text-anchor="middle" x="301" y="-151.8" font-family="Times,serif" font-size="14.00">ContactsController</text>
<polyline fill="none" stroke="black" points="239.731,-145 362.269,-145 "/>
<text text-anchor="start" x="247.731" y="-129.8" font-family="Times,serif" font-size="14.00">create</text>
<text text-anchor="start" x="247.731" y="-115.8" font-family="Times,serif" font-size="14.00">index</text>
<polyline fill="none" stroke="black" points="239.731,-109 362.269,-109 "/>
<polyline fill="none" stroke="black" points="239.731,-85 362.269,-85 "/>
<text text-anchor="start" x="247.731" y="-69.8" font-family="Times,serif" font-size="14.00">_layout</text>
<text text-anchor="start" x="247.731" y="-55.8" font-family="Times,serif" font-size="14.00">contact_params</text>
</g>
<!-- DamsController -->
<g id="node5" class="node"><title>DamsController</title>
<path fill="none" stroke="black" d="M-164.104,-177C-164.104,-177 -81.8965,-177 -81.8965,-177 -75.8965,-177 -69.8965,-183 -69.8965,-189 -69.8965,-189 -69.8965,-339 -69.8965,-339 -69.8965,-345 -75.8965,-351 -81.8965,-351 -81.8965,-351 -164.104,-351 -164.104,-351 -170.104,-351 -176.104,-345 -176.104,-339 -176.104,-339 -176.104,-189 -176.104,-189 -176.104,-183 -170.104,-177 -164.104,-177"/>
<text text-anchor="middle" x="-123" y="-335.8" font-family="Times,serif" font-size="14.00">DamsController</text>
<polyline fill="none" stroke="black" points="-176.104,-329 -69.8965,-329 "/>
<text text-anchor="start" x="-168.104" y="-313.8" font-family="Times,serif" font-size="14.00">create</text>
<text text-anchor="start" x="-168.104" y="-299.8" font-family="Times,serif" font-size="14.00">destroy</text>
<text text-anchor="start" x="-168.104" y="-285.8" font-family="Times,serif" font-size="14.00">edit</text>
<text text-anchor="start" x="-168.104" y="-271.8" font-family="Times,serif" font-size="14.00">index</text>
<text text-anchor="start" x="-168.104" y="-257.8" font-family="Times,serif" font-size="14.00">new</text>
<text text-anchor="start" x="-168.104" y="-243.8" font-family="Times,serif" font-size="14.00">update</text>
<polyline fill="none" stroke="black" points="-176.104,-237 -69.8965,-237 "/>
<polyline fill="none" stroke="black" points="-176.104,-213 -69.8965,-213 "/>
<text text-anchor="start" x="-168.104" y="-197.8" font-family="Times,serif" font-size="14.00">_layout</text>
<text text-anchor="start" x="-168.104" y="-183.8" font-family="Times,serif" font-size="14.00">dam_params</text>
</g>
<!-- FamilyMembersController -->
<g id="node6" class="node"><title>FamilyMembersController</title>
<path fill="none" stroke="black" d="M-84.0449,95C-84.0449,95 58.0449,95 58.0449,95 64.0449,95 70.0449,89 70.0449,83 70.0449,83 70.0449,-53 70.0449,-53 70.0449,-59 64.0449,-65 58.0449,-65 58.0449,-65 -84.0449,-65 -84.0449,-65 -90.0449,-65 -96.0449,-59 -96.0449,-53 -96.0449,-53 -96.0449,83 -96.0449,83 -96.0449,89 -90.0449,95 -84.0449,95"/>
<text text-anchor="middle" x="-13" y="-49.8" font-family="Times,serif" font-size="14.00">FamilyMembersController</text>
<polyline fill="none" stroke="black" points="-96.0449,-43 70.0449,-43 "/>
<text text-anchor="start" x="-88.0449" y="-27.8" font-family="Times,serif" font-size="14.00">create</text>
<text text-anchor="start" x="-88.0449" y="-13.8" font-family="Times,serif" font-size="14.00">destroy</text>
<text text-anchor="start" x="-88.0449" y="0.2" font-family="Times,serif" font-size="14.00">edit</text>
<text text-anchor="start" x="-88.0449" y="14.2" font-family="Times,serif" font-size="14.00">new</text>
<text text-anchor="start" x="-88.0449" y="28.2" font-family="Times,serif" font-size="14.00">update</text>
<polyline fill="none" stroke="black" points="-96.0449,35 70.0449,35 "/>
<polyline fill="none" stroke="black" points="-96.0449,59 70.0449,59 "/>
<text text-anchor="start" x="-88.0449" y="74.2" font-family="Times,serif" font-size="14.00">_layout</text>
<text text-anchor="start" x="-88.0449" y="88.2" font-family="Times,serif" font-size="14.00">family_member_params</text>
</g>
<!-- PuppiesController -->
<g id="node7" class="node"><title>PuppiesController</title>
<path fill="none" stroke="black" d="M108.059,-49C108.059,-49 201.941,-49 201.941,-49 207.941,-49 213.941,-55 213.941,-61 213.941,-61 213.941,-211 213.941,-211 213.941,-217 207.941,-223 201.941,-223 201.941,-223 108.059,-223 108.059,-223 102.059,-223 96.0586,-217 96.0586,-211 96.0586,-211 96.0586,-61 96.0586,-61 96.0586,-55 102.059,-49 108.059,-49"/>
<text text-anchor="middle" x="155" y="-207.8" font-family="Times,serif" font-size="14.00">PuppiesController</text>
<polyline fill="none" stroke="black" points="96.0586,-201 213.941,-201 "/>
<text text-anchor="start" x="104.059" y="-185.8" font-family="Times,serif" font-size="14.00">create</text>
<text text-anchor="start" x="104.059" y="-171.8" font-family="Times,serif" font-size="14.00">edit</text>
<text text-anchor="start" x="104.059" y="-157.8" font-family="Times,serif" font-size="14.00">index</text>
<text text-anchor="start" x="104.059" y="-143.8" font-family="Times,serif" font-size="14.00">new</text>
<text text-anchor="start" x="104.059" y="-129.8" font-family="Times,serif" font-size="14.00">past_puppies</text>
<text text-anchor="start" x="104.059" y="-115.8" font-family="Times,serif" font-size="14.00">update</text>
<polyline fill="none" stroke="black" points="96.0586,-109 213.941,-109 "/>
<polyline fill="none" stroke="black" points="96.0586,-85 213.941,-85 "/>
<text text-anchor="start" x="104.059" y="-69.8" font-family="Times,serif" font-size="14.00">_layout</text>
<text text-anchor="start" x="104.059" y="-55.8" font-family="Times,serif" font-size="14.00">puppy_params</text>
</g>
<!-- SiresController -->
<g id="node8" class="node"><title>SiresController</title>
<path fill="none" stroke="black" d="M-19.7725,-97C-19.7725,-97 57.7725,-97 57.7725,-97 63.7725,-97 69.7725,-103 69.7725,-109 69.7725,-109 69.7725,-259 69.7725,-259 69.7725,-265 63.7725,-271 57.7725,-271 57.7725,-271 -19.7725,-271 -19.7725,-271 -25.7725,-271 -31.7725,-265 -31.7725,-259 -31.7725,-259 -31.7725,-109 -31.7725,-109 -31.7725,-103 -25.7725,-97 -19.7725,-97"/>
<text text-anchor="middle" x="19" y="-255.8" font-family="Times,serif" font-size="14.00">SiresController</text>
<polyline fill="none" stroke="black" points="-31.7725,-249 69.7725,-249 "/>
<text text-anchor="start" x="-23.7725" y="-233.8" font-family="Times,serif" font-size="14.00">create</text>
<text text-anchor="start" x="-23.7725" y="-219.8" font-family="Times,serif" font-size="14.00">destroy</text>
<text text-anchor="start" x="-23.7725" y="-205.8" font-family="Times,serif" font-size="14.00">edit</text>
<text text-anchor="start" x="-23.7725" y="-191.8" font-family="Times,serif" font-size="14.00">index</text>
<text text-anchor="start" x="-23.7725" y="-177.8" font-family="Times,serif" font-size="14.00">new</text>
<text text-anchor="start" x="-23.7725" y="-163.8" font-family="Times,serif" font-size="14.00">update</text>
<polyline fill="none" stroke="black" points="-31.7725,-157 69.7725,-157 "/>
<polyline fill="none" stroke="black" points="-31.7725,-133 69.7725,-133 "/>
<text text-anchor="start" x="-23.7725" y="-117.8" font-family="Times,serif" font-size="14.00">_layout</text>
<text text-anchor="start" x="-23.7725" y="-103.8" font-family="Times,serif" font-size="14.00">sire_params</text>
</g>
</g>
</svg>
