<?xml version="1.0" encoding="UTF-8" standalone="no"?>
<!DOCTYPE svg PUBLIC "-//W3C//DTD SVG 1.1//EN"
 "http://www.w3.org/Graphics/SVG/1.1/DTD/svg11.dtd">
<!-- Generated by graphviz version 2.38.0 (20140413.2041)
 -->
<!-- Title: models_diagram Pages: 1 -->
<svg width="861pt" height="153pt"
 viewBox="0.00 0.00 860.81 153.00" xmlns="http://www.w3.org/2000/svg" xmlns:xlink="http://www.w3.org/1999/xlink">
<g id="graph0" class="graph" transform="scale(1 1) rotate(0) translate(4 149)">
<title>models_diagram</title>
<polygon fill="none" stroke="none" points="-4,4 -4,-149 856.811,-149 856.811,4 -4,4"/>
<!-- _diagram_info -->
<g id="node1" class="node"><title>_diagram_info</title>
<text text-anchor="start" x="8" y="-130.6" font-family="Times,serif" font-size="13.00">Models diagram</text>
<text text-anchor="start" x="8" y="-117.6" font-family="Times,serif" font-size="13.00">Date: Sep 30 2016 &#45; 09:46</text>
<text text-anchor="start" x="8" y="-104.6" font-family="Times,serif" font-size="13.00">Migration version: 20160926173352</text>
<text text-anchor="start" x="8" y="-91.6" font-family="Times,serif" font-size="13.00">Generated by RailRoady 1.5.2</text>
<text text-anchor="start" x="8" y="-78.6" font-family="Times,serif" font-size="13.00">http://railroady.prestonlee.com</text>
</g>
<!-- Admin -->
<g id="node2" class="node"><title>Admin</title>
<ellipse fill="none" stroke="black" cx="259.688" cy="-108.5" rx="34.8458" ry="18"/>
<text text-anchor="middle" x="259.688" y="-104.3" font-family="Times,serif" font-size="14.00">Admin</text>
</g>
<!-- ApplicationRecord -->
<g id="node3" class="node"><title>ApplicationRecord</title>
<ellipse fill="none" stroke="black" cx="389.688" cy="-108.5" rx="77.2916" ry="18"/>
<text text-anchor="middle" x="389.688" y="-104.3" font-family="Times,serif" font-size="14.00">ApplicationRecord</text>
</g>
<!-- Contact -->
<g id="node4" class="node"><title>Contact</title>
<ellipse fill="none" stroke="black" cx="522.688" cy="-108.5" rx="37.7266" ry="18"/>
<text text-anchor="middle" x="522.688" y="-104.3" font-family="Times,serif" font-size="14.00">Contact</text>
</g>
<!-- Dam -->
<g id="node5" class="node"><title>Dam</title>
<ellipse fill="none" stroke="black" cx="605.688" cy="-108.5" rx="27.0958" ry="18"/>
<text text-anchor="middle" x="605.688" y="-104.3" font-family="Times,serif" font-size="14.00">Dam</text>
</g>
<!-- Puppy -->
<g id="node7" class="node"><title>Puppy</title>
<ellipse fill="none" stroke="black" cx="641.688" cy="-18" rx="32.9255" ry="18"/>
<text text-anchor="middle" x="641.688" y="-13.8" font-family="Times,serif" font-size="14.00">Puppy</text>
</g>
<!-- Dam&#45;&gt;Puppy -->
<g id="edge1" class="edge"><title>Dam&#45;&gt;Puppy</title>
<path fill="none" stroke="#dc85c7" d="M615.495,-83.3912C620.28,-71.6285 626.046,-57.4519 630.949,-45.3984"/>
<ellipse fill="none" stroke="#dc85c7" cx="613.966" cy="-87.1486" rx="4.00002" ry="4.00002"/>
<polygon fill="#dc85c7" stroke="#dc85c7" points="631.056,-45.1354 638.993,-37.568 632.94,-40.5039 634.824,-35.8724 634.824,-35.8724 634.824,-35.8724 632.94,-40.5039 630.656,-34.1768 631.056,-45.1354 631.056,-45.1354"/>
</g>
<!-- FamilyMember -->
<g id="node6" class="node"><title>FamilyMember</title>
<ellipse fill="none" stroke="black" cx="787.688" cy="-108.5" rx="65.2477" ry="18"/>
<text text-anchor="middle" x="787.688" y="-104.3" font-family="Times,serif" font-size="14.00">FamilyMember</text>
</g>
<!-- Sire -->
<g id="node8" class="node"><title>Sire</title>
<ellipse fill="none" stroke="black" cx="677.688" cy="-108.5" rx="27" ry="18"/>
<text text-anchor="middle" x="677.688" y="-104.3" font-family="Times,serif" font-size="14.00">Sire</text>
</g>
<!-- Sire&#45;&gt;Puppy -->
<g id="edge2" class="edge"><title>Sire&#45;&gt;Puppy</title>
<path fill="none" stroke="#45db1a" d="M667.881,-83.3912C663.096,-71.6285 657.329,-57.4519 652.426,-45.3984"/>
<ellipse fill="none" stroke="#45db1a" cx="669.409" cy="-87.1486" rx="4.00002" ry="4.00002"/>
<polygon fill="#45db1a" stroke="#45db1a" points="652.319,-45.1354 652.719,-34.1768 650.435,-40.5039 648.551,-35.8724 648.551,-35.8724 648.551,-35.8724 650.435,-40.5039 644.383,-37.568 652.319,-45.1354 652.319,-45.1354"/>
</g>
</g>
</svg>
