<?xml version="1.0" encoding="UTF-8" standalone="no"?>
<!DOCTYPE svg PUBLIC "-//W3C//DTD SVG 1.1//EN"
 "http://www.w3.org/Graphics/SVG/1.1/DTD/svg11.dtd">
<!-- Generated by graphviz version 2.38.0 (20140413.2041)
 -->
<!-- Title: models_diagram Pages: 1 -->
<svg width="1718pt" height="372pt"
 viewBox="0.00 0.00 1717.55 372.00" xmlns="http://www.w3.org/2000/svg" xmlns:xlink="http://www.w3.org/1999/xlink">
<g id="graph0" class="graph" transform="scale(1 1) rotate(0) translate(4 368)">
<title>models_diagram</title>
<polygon fill="none" stroke="none" points="-4,4 -4,-368 1713.55,-368 1713.55,4 -4,4"/>
<!-- _diagram_info -->
<g id="node1" class="node"><title>_diagram_info</title>
<text text-anchor="start" x="8" y="-321.6" font-family="Times,serif" font-size="13.00">Models diagram</text>
<text text-anchor="start" x="8" y="-308.6" font-family="Times,serif" font-size="13.00">Date: Sep 30 2016 &#45; 09:46</text>
<text text-anchor="start" x="8" y="-295.6" font-family="Times,serif" font-size="13.00">Migration version: 20160926173352</text>
<text text-anchor="start" x="8" y="-282.6" font-family="Times,serif" font-size="13.00">Generated by RailRoady 1.5.2</text>
<text text-anchor="start" x="8" y="-269.6" font-family="Times,serif" font-size="13.00">http://railroady.prestonlee.com</text>
</g>
<!-- Admin -->
<g id="node2" class="node"><title>Admin</title>
<path fill="none" stroke="black" d="M237.825,-242.5C237.825,-242.5 461.55,-242.5 461.55,-242.5 467.55,-242.5 473.55,-248.5 473.55,-254.5 473.55,-254.5 473.55,-344.5 473.55,-344.5 473.55,-350.5 467.55,-356.5 461.55,-356.5 461.55,-356.5 237.825,-356.5 237.825,-356.5 231.825,-356.5 225.825,-350.5 225.825,-344.5 225.825,-344.5 225.825,-254.5 225.825,-254.5 225.825,-248.5 231.825,-242.5 237.825,-242.5"/>
<text text-anchor="middle" x="349.688" y="-341.3" font-family="Times,serif" font-size="14.00">Admin</text>
<polyline fill="none" stroke="black" points="225.825,-334.5 473.55,-334.5 "/>
<text text-anchor="start" x="233.825" y="-319.3" font-family="Times,serif" font-size="14.00">id :integer</text>
<text text-anchor="start" x="233.825" y="-305.3" font-family="Times,serif" font-size="14.00">email :character varying</text>
<text text-anchor="start" x="233.825" y="-291.3" font-family="Times,serif" font-size="14.00">username :character varying</text>
<text text-anchor="start" x="233.825" y="-277.3" font-family="Times,serif" font-size="14.00">password_digest :character varying</text>
<text text-anchor="start" x="233.825" y="-263.3" font-family="Times,serif" font-size="14.00">created_at :timestamp without time zone</text>
<text text-anchor="start" x="233.825" y="-249.3" font-family="Times,serif" font-size="14.00">updated_at :timestamp without time zone</text>
</g>
<!-- ApplicationRecord -->
<g id="node3" class="node"><title>ApplicationRecord</title>
<ellipse fill="none" stroke="black" cx="568.688" cy="-299.5" rx="77.2916" ry="18"/>
<text text-anchor="middle" x="568.688" y="-295.3" font-family="Times,serif" font-size="14.00">ApplicationRecord</text>
</g>
<!-- Contact -->
<g id="node4" class="node"><title>Contact</title>
<path fill="none" stroke="black" d="M675.825,-235.5C675.825,-235.5 899.55,-235.5 899.55,-235.5 905.55,-235.5 911.55,-241.5 911.55,-247.5 911.55,-247.5 911.55,-351.5 911.55,-351.5 911.55,-357.5 905.55,-363.5 899.55,-363.5 899.55,-363.5 675.825,-363.5 675.825,-363.5 669.825,-363.5 663.825,-357.5 663.825,-351.5 663.825,-351.5 663.825,-247.5 663.825,-247.5 663.825,-241.5 669.825,-235.5 675.825,-235.5"/>
<text text-anchor="middle" x="787.688" y="-348.3" font-family="Times,serif" font-size="14.00">Contact</text>
<polyline fill="none" stroke="black" points="663.825,-341.5 911.55,-341.5 "/>
<text text-anchor="start" x="671.825" y="-326.3" font-family="Times,serif" font-size="14.00">phone :character varying</text>
<text text-anchor="start" x="671.825" y="-312.3" font-family="Times,serif" font-size="14.00">name :character varying</text>
<text text-anchor="start" x="671.825" y="-298.3" font-family="Times,serif" font-size="14.00">email :character varying</text>
<text text-anchor="start" x="671.825" y="-284.3" font-family="Times,serif" font-size="14.00">id :integer</text>
<text text-anchor="start" x="671.825" y="-270.3" font-family="Times,serif" font-size="14.00">message :text</text>
<text text-anchor="start" x="671.825" y="-256.3" font-family="Times,serif" font-size="14.00">created_at :timestamp without time zone</text>
<text text-anchor="start" x="671.825" y="-242.3" font-family="Times,serif" font-size="14.00">updated_at :timestamp without time zone</text>
</g>
<!-- Dam -->
<g id="node5" class="node"><title>Dam</title>
<path fill="none" stroke="black" d="M941.825,-242.5C941.825,-242.5 1165.55,-242.5 1165.55,-242.5 1171.55,-242.5 1177.55,-248.5 1177.55,-254.5 1177.55,-254.5 1177.55,-344.5 1177.55,-344.5 1177.55,-350.5 1171.55,-356.5 1165.55,-356.5 1165.55,-356.5 941.825,-356.5 941.825,-356.5 935.825,-356.5 929.825,-350.5 929.825,-344.5 929.825,-344.5 929.825,-254.5 929.825,-254.5 929.825,-248.5 935.825,-242.5 941.825,-242.5"/>
<text text-anchor="middle" x="1053.69" y="-341.3" font-family="Times,serif" font-size="14.00">Dam</text>
<polyline fill="none" stroke="black" points="929.825,-334.5 1177.55,-334.5 "/>
<text text-anchor="start" x="937.825" y="-319.3" font-family="Times,serif" font-size="14.00">id :integer</text>
<text text-anchor="start" x="937.825" y="-305.3" font-family="Times,serif" font-size="14.00">name :character varying</text>
<text text-anchor="start" x="937.825" y="-291.3" font-family="Times,serif" font-size="14.00">image_id :character varying</text>
<text text-anchor="start" x="937.825" y="-277.3" font-family="Times,serif" font-size="14.00">description :text</text>
<text text-anchor="start" x="937.825" y="-263.3" font-family="Times,serif" font-size="14.00">created_at :timestamp without time zone</text>
<text text-anchor="start" x="937.825" y="-249.3" font-family="Times,serif" font-size="14.00">updated_at :timestamp without time zone</text>
</g>
<!-- Puppy -->
<g id="node7" class="node"><title>Puppy</title>
<path fill="none" stroke="black" d="M1074.83,-0.5C1074.83,-0.5 1298.55,-0.5 1298.55,-0.5 1304.55,-0.5 1310.55,-6.5 1310.55,-12.5 1310.55,-12.5 1310.55,-186.5 1310.55,-186.5 1310.55,-192.5 1304.55,-198.5 1298.55,-198.5 1298.55,-198.5 1074.83,-198.5 1074.83,-198.5 1068.83,-198.5 1062.83,-192.5 1062.83,-186.5 1062.83,-186.5 1062.83,-12.5 1062.83,-12.5 1062.83,-6.5 1068.83,-0.5 1074.83,-0.5"/>
<text text-anchor="middle" x="1186.69" y="-183.3" font-family="Times,serif" font-size="14.00">Puppy</text>
<polyline fill="none" stroke="black" points="1062.83,-176.5 1310.55,-176.5 "/>
<text text-anchor="start" x="1070.83" y="-161.3" font-family="Times,serif" font-size="14.00">dam_id :integer</text>
<text text-anchor="start" x="1070.83" y="-147.3" font-family="Times,serif" font-size="14.00">name :character varying</text>
<text text-anchor="start" x="1070.83" y="-133.3" font-family="Times,serif" font-size="14.00">dob :date</text>
<text text-anchor="start" x="1070.83" y="-119.3" font-family="Times,serif" font-size="14.00">color :character varying</text>
<text text-anchor="start" x="1070.83" y="-105.3" font-family="Times,serif" font-size="14.00">status :character varying</text>
<text text-anchor="start" x="1070.83" y="-91.3" font-family="Times,serif" font-size="14.00">description :text</text>
<text text-anchor="start" x="1070.83" y="-77.3" font-family="Times,serif" font-size="14.00">created_at :timestamp without time zone</text>
<text text-anchor="start" x="1070.83" y="-63.3" font-family="Times,serif" font-size="14.00">updated_at :timestamp without time zone</text>
<text text-anchor="start" x="1070.83" y="-49.3" font-family="Times,serif" font-size="14.00">image_id :character varying</text>
<text text-anchor="start" x="1070.83" y="-35.3" font-family="Times,serif" font-size="14.00">visible :boolean</text>
<text text-anchor="start" x="1070.83" y="-21.3" font-family="Times,serif" font-size="14.00">sire_id :integer</text>
<text text-anchor="start" x="1070.83" y="-7.3" font-family="Times,serif" font-size="14.00">id :integer</text>
</g>
<!-- Dam&#45;&gt;Puppy -->
<g id="edge1" class="edge"><title>Dam&#45;&gt;Puppy</title>
<path fill="none" stroke="#478c82" d="M1096.01,-235.493C1102.09,-226.436 1108.49,-216.915 1114.95,-207.295"/>
<ellipse fill="none" stroke="#478c82" cx="1093.67" cy="-238.97" rx="4.00002" ry="4.00002"/>
<polygon fill="#478c82" stroke="#478c82" points="1115.07,-207.126 1124.38,-201.334 1117.85,-202.975 1120.64,-198.825 1120.64,-198.825 1120.64,-198.825 1117.85,-202.975 1116.91,-196.316 1115.07,-207.126 1115.07,-207.126"/>
</g>
<!-- FamilyMember -->
<g id="node6" class="node"><title>FamilyMember</title>
<path fill="none" stroke="black" d="M1473.83,-242.5C1473.83,-242.5 1697.55,-242.5 1697.55,-242.5 1703.55,-242.5 1709.55,-248.5 1709.55,-254.5 1709.55,-254.5 1709.55,-344.5 1709.55,-344.5 1709.55,-350.5 1703.55,-356.5 1697.55,-356.5 1697.55,-356.5 1473.83,-356.5 1473.83,-356.5 1467.83,-356.5 1461.83,-350.5 1461.83,-344.5 1461.83,-344.5 1461.83,-254.5 1461.83,-254.5 1461.83,-248.5 1467.83,-242.5 1473.83,-242.5"/>
<text text-anchor="middle" x="1585.69" y="-341.3" font-family="Times,serif" font-size="14.00">FamilyMember</text>
<polyline fill="none" stroke="black" points="1461.83,-334.5 1709.55,-334.5 "/>
<text text-anchor="start" x="1469.83" y="-319.3" font-family="Times,serif" font-size="14.00">id :integer</text>
<text text-anchor="start" x="1469.83" y="-305.3" font-family="Times,serif" font-size="14.00">name :character varying</text>
<text text-anchor="start" x="1469.83" y="-291.3" font-family="Times,serif" font-size="14.00">description :text</text>
<text text-anchor="start" x="1469.83" y="-277.3" font-family="Times,serif" font-size="14.00">created_at :timestamp without time zone</text>
<text text-anchor="start" x="1469.83" y="-263.3" font-family="Times,serif" font-size="14.00">updated_at :timestamp without time zone</text>
<text text-anchor="start" x="1469.83" y="-249.3" font-family="Times,serif" font-size="14.00">image_id :character varying</text>
</g>
<!-- Sire -->
<g id="node8" class="node"><title>Sire</title>
<path fill="none" stroke="black" d="M1207.83,-242.5C1207.83,-242.5 1431.55,-242.5 1431.55,-242.5 1437.55,-242.5 1443.55,-248.5 1443.55,-254.5 1443.55,-254.5 1443.55,-344.5 1443.55,-344.5 1443.55,-350.5 1437.55,-356.5 1431.55,-356.5 1431.55,-356.5 1207.83,-356.5 1207.83,-356.5 1201.83,-356.5 1195.83,-350.5 1195.83,-344.5 1195.83,-344.5 1195.83,-254.5 1195.83,-254.5 1195.83,-248.5 1201.83,-242.5 1207.83,-242.5"/>
<text text-anchor="middle" x="1319.69" y="-341.3" font-family="Times,serif" font-size="14.00">Sire</text>
<polyline fill="none" stroke="black" points="1195.83,-334.5 1443.55,-334.5 "/>
<text text-anchor="start" x="1203.83" y="-319.3" font-family="Times,serif" font-size="14.00">id :integer</text>
<text text-anchor="start" x="1203.83" y="-305.3" font-family="Times,serif" font-size="14.00">name :character varying</text>
<text text-anchor="start" x="1203.83" y="-291.3" font-family="Times,serif" font-size="14.00">image_id :character varying</text>
<text text-anchor="start" x="1203.83" y="-277.3" font-family="Times,serif" font-size="14.00">description :text</text>
<text text-anchor="start" x="1203.83" y="-263.3" font-family="Times,serif" font-size="14.00">created_at :timestamp without time zone</text>
<text text-anchor="start" x="1203.83" y="-249.3" font-family="Times,serif" font-size="14.00">updated_at :timestamp without time zone</text>
</g>
<!-- Sire&#45;&gt;Puppy -->
<g id="edge2" class="edge"><title>Sire&#45;&gt;Puppy</title>
<path fill="none" stroke="#928aaa" d="M1277.36,-235.493C1271.28,-226.436 1264.89,-216.915 1258.42,-207.295"/>
<ellipse fill="none" stroke="#928aaa" cx="1279.7" cy="-238.97" rx="4.00002" ry="4.00002"/>
<polygon fill="#928aaa" stroke="#928aaa" points="1258.31,-207.126 1256.47,-196.316 1255.52,-202.975 1252.73,-198.825 1252.73,-198.825 1252.73,-198.825 1255.52,-202.975 1249,-201.334 1258.31,-207.126 1258.31,-207.126"/>
</g>
</g>
</svg>
